<svg xmlns="http://www.w3.org/2000/svg" id="Component_36_2" width="20" height="20" viewBox="0 0 20 20">
    <defs>
        <clipPath id="clip-path">
            <path id="Rectangle_55" d="M0 0H20V20H0z" class="cls-1" transform="translate(.256)"/>
        </clipPath>
        <style>
            .cls-1{fill:#fff}
        </style>
    </defs>
    <g id="Mask_Group_12" clip-path="url(#clip-path)" transform="translate(-.256)">
        <path id="github-brands" d="M6.772 16.348c0 .082-.094.147-.212.147-.135.012-.229-.053-.229-.147s.094-.147.212-.147.229.053.229.147zM5.5 16.164c-.029.082.053.176.176.2a.191.191 0 0 0 .253-.082c.024-.082-.053-.176-.176-.212a.21.21 0 0 0-.253.094zm1.8-.069c-.118.029-.2.106-.188.2s.118.135.241.106.2-.106.188-.188-.115-.13-.234-.118zM9.993.452A9.789 9.789 0 0 0 0 10.412a10.235 10.235 0 0 0 6.919 9.765c.523.094.706-.229.706-.494s-.012-1.649-.012-2.507c0 0-2.858.612-3.458-1.217 0 0-.465-1.188-1.135-1.494 0 0-.935-.641.065-.629a2.155 2.155 0 0 1 1.576 1.053 2.158 2.158 0 0 0 2.976.853 2.269 2.269 0 0 1 .653-1.376c-2.282-.253-4.584-.584-4.584-4.511a3.094 3.094 0 0 1 .963-2.4 3.857 3.857 0 0 1 .106-2.772c.853-.265 2.817 1.1 2.817 1.1a9.644 9.644 0 0 1 5.127 0s1.964-1.372 2.817-1.1a3.855 3.855 0 0 1 .106 2.772 3.173 3.173 0 0 1 1.053 2.4c0 3.939-2.4 4.254-4.686 4.511a2.414 2.414 0 0 1 .694 1.894c0 1.376-.012 3.078-.012 3.413 0 .265.188.588.706.494a10.14 10.14 0 0 0 6.85-9.757A10.01 10.01 0 0 0 9.993.452zM3.968 14.531c-.053.041-.041.135.029.212s.159.094.212.041.041-.135-.029-.212-.159-.094-.212-.041zm-.441-.331c-.029.053.012.118.094.159a.121.121 0 0 0 .176-.029c.029-.053-.012-.118-.094-.159-.082-.023-.147-.011-.176.029zm1.323 1.454c-.065.053-.041.176.053.253.094.094.212.106.265.041s.029-.176-.053-.253c-.09-.095-.215-.106-.265-.041zm-.465-.6c-.065.041-.065.147 0 .241s.176.135.229.094a.186.186 0 0 0 0-.253c-.057-.094-.163-.135-.229-.082z" class="cls-1" transform="translate(0 -.199)"/>
    </g>
</svg>
